<svg width="113" height="43" viewBox="0 0 113 43" fill="none" xmlns="http://www.w3.org/2000/svg">
<path d="M32.56 0.623999C32.8213 0.605333 33.0173 0.707999 33.148 0.931998C33.2973 1.13733 33.3347 1.352 33.26 1.576C33.1853 1.78133 33.0173 1.89333 32.756 1.912C27.5853 2.15467 22.424 2.57467 17.272 3.172C17.1227 3.71333 16.8707 4.47867 16.516 5.468C16.18 6.43867 16.012 6.94267 16.012 6.98C15.62 8.39867 15.228 9.82667 14.836 11.264C14.2947 13.3173 13.7067 15.6413 13.072 18.236C13.912 17.7507 14.8453 17.3213 15.872 16.948C16.9173 16.556 17.8227 16.2573 18.588 16.052C19.372 15.8467 20.4173 15.6413 21.724 15.436C23.0493 15.2307 24.0013 15.1 24.58 15.044C25.1587 14.9693 26.1947 14.8573 27.688 14.708C27.9493 14.6707 28.1453 14.7547 28.276 14.96C28.4253 15.1653 28.4627 15.3893 28.388 15.632C28.3133 15.856 28.1453 15.9773 27.884 15.996C26.7453 16.108 25.9707 16.192 25.56 16.248C25.1493 16.2853 24.4027 16.3787 23.32 16.528C22.256 16.6587 21.4533 16.7893 20.912 16.92C20.3707 17.032 19.6333 17.2 18.7 17.424C17.7853 17.648 17.0293 17.8813 16.432 18.124C15.8347 18.3667 15.1813 18.6747 14.472 19.048C13.7627 19.4213 13.128 19.8227 12.568 20.252C12.5493 20.308 12.5213 20.392 12.484 20.504C12.4653 20.616 12.456 20.7 12.456 20.756C10.9253 27.1213 9.64667 33.16 8.62 38.872C8.58267 39.0587 8.49867 39.208 8.368 39.32C8.23733 39.4507 8.07867 39.4973 7.892 39.46C7.74267 39.4227 7.60267 39.348 7.472 39.236C7.34133 39.124 7.22933 38.9933 7.136 38.844C7.06133 38.6947 6.98667 38.508 6.912 38.284C6.83733 38.06 6.78133 37.8453 6.744 37.64C6.72533 37.4347 6.69733 37.2013 6.66 36.94C6.64133 36.6973 6.62267 36.4827 6.604 36.296C6.604 36.128 6.59467 35.932 6.576 35.708C6.576 35.5027 6.56667 35.3627 6.548 35.288C6.324 32.0213 6.56667 28.9973 7.276 26.216C8.06 23.248 9.45067 20.952 11.448 19.328C11.4853 19.1787 11.5413 18.936 11.616 18.6C11.7093 18.2453 11.7747 17.984 11.812 17.816C12.7267 14.1387 13.6507 10.6013 14.584 7.204C14.6587 6.99867 14.78 6.43867 14.948 5.524C15.1347 4.60933 15.312 3.89067 15.48 3.368C10.776 3.96533 6.17467 4.67467 1.676 5.496C1.41467 5.552 1.21867 5.48667 1.088 5.3C0.938667 5.09467 0.901333 4.88 0.976 4.656C1.05067 4.41333 1.21867 4.264 1.48 4.208C6.25867 3.33067 11.112 2.59333 16.04 1.996C16.4693 1.19333 17.0013 0.717332 17.636 0.567998C17.8787 0.511999 18.0747 0.595999 18.224 0.819998L18.42 1.044C18.588 1.24933 18.616 1.47333 18.504 1.716C23.264 1.19333 27.9493 0.829332 32.56 0.623999ZM7.892 35.68C8.75067 31.1813 9.74 26.5893 10.86 21.904C9.964 22.968 9.292 24.1907 8.844 25.572C8.04133 27.9987 7.68667 30.7893 7.78 33.944C7.79867 34.4853 7.836 35.064 7.892 35.68ZM35.3657 18.852C35.5524 18.8707 35.7017 18.9547 35.8137 19.104C35.9257 19.2347 35.9724 19.3933 35.9537 19.58C35.935 19.748 35.8604 19.888 35.7297 20C34.6284 20.8773 33.2284 21.12 31.5297 20.728C31.623 21.3813 31.595 22.296 31.4457 23.472C31.371 24.0133 31.119 24.7133 30.6897 25.572C30.279 26.4307 29.7657 27.0467 29.1497 27.42C28.795 27.644 28.4217 27.756 28.0297 27.756C27.8057 27.756 27.591 27.7187 27.3857 27.644C26.079 27.196 25.5657 25.796 25.8457 23.444C25.8644 23.3133 25.8737 23.2293 25.8737 23.192C25.9297 22.6507 26.1257 22.044 26.4617 21.372C26.7977 20.6813 27.2644 20.0653 27.8617 19.524C28.459 18.9827 29.0844 18.712 29.7377 18.712C30.1857 18.712 30.559 18.8613 30.8577 19.16C32.575 19.8133 33.919 19.748 34.8897 18.964C35.039 18.852 35.1977 18.8147 35.3657 18.852ZM30.1297 23.332C30.335 21.7453 30.3164 20.7187 30.0737 20.252C29.9057 20.196 29.747 20.1213 29.5977 20.028C29.075 20.1213 28.5524 20.5413 28.0297 21.288C27.507 22.0347 27.227 22.7067 27.1897 23.304C27.171 23.36 27.1617 23.4533 27.1617 23.584C27.0497 24.1627 27.031 24.7507 27.1057 25.348C27.199 25.9267 27.4324 26.2813 27.8057 26.412C28.011 26.4867 28.235 26.4587 28.4777 26.328C28.739 26.1413 29.0004 25.8333 29.2617 25.404C29.5417 24.9747 29.747 24.5733 29.8777 24.2C30.027 23.8267 30.111 23.5373 30.1297 23.332ZM42.0649 18.852C42.2516 18.8707 42.4009 18.9547 42.5129 19.104C42.6249 19.2347 42.6716 19.3933 42.6529 19.58C42.6342 19.748 42.5596 19.888 42.4289 20C41.3276 20.8773 39.9276 21.12 38.2289 20.728C38.3222 21.3813 38.2942 22.296 38.1449 23.472C38.0702 24.0133 37.8182 24.7133 37.3889 25.572C36.9782 26.4307 36.4649 27.0467 35.8489 27.42C35.4942 27.644 35.1209 27.756 34.7289 27.756C34.5049 27.756 34.2902 27.7187 34.0849 27.644C32.7782 27.196 32.2649 25.796 32.5449 23.444C32.5636 23.3133 32.5729 23.2293 32.5729 23.192C32.6289 22.6507 32.8249 22.044 33.1609 21.372C33.4969 20.6813 33.9636 20.0653 34.5609 19.524C35.1582 18.9827 35.7836 18.712 36.4369 18.712C36.8849 18.712 37.2582 18.8613 37.5569 19.16C39.2742 19.8133 40.6182 19.748 41.5889 18.964C41.7382 18.852 41.8969 18.8147 42.0649 18.852ZM36.8289 23.332C37.0342 21.7453 37.0156 20.7187 36.7729 20.252C36.6049 20.196 36.4462 20.1213 36.2969 20.028C35.7742 20.1213 35.2516 20.5413 34.7289 21.288C34.2062 22.0347 33.9262 22.7067 33.8889 23.304C33.8702 23.36 33.8609 23.4533 33.8609 23.584C33.7489 24.1627 33.7302 24.7507 33.8049 25.348C33.8982 25.9267 34.1316 26.2813 34.5049 26.412C34.7102 26.4867 34.9342 26.4587 35.1769 26.328C35.4382 26.1413 35.6996 25.8333 35.9609 25.404C36.2409 24.9747 36.4462 24.5733 36.5769 24.2C36.7262 23.8267 36.8102 23.5373 36.8289 23.332ZM52.2836 24.844C52.3956 24.6947 52.5356 24.6107 52.7036 24.592C52.8903 24.5547 53.0583 24.5827 53.2076 24.676C53.3569 24.7693 53.4503 24.9093 53.4876 25.096C53.5249 25.264 53.4876 25.4227 53.3756 25.572C53.3009 25.684 53.2076 25.8147 53.0956 25.964C52.9836 26.1133 52.7596 26.3653 52.4236 26.72C52.0876 27.0747 51.7423 27.3827 51.3876 27.644C51.0329 27.9053 50.5943 28.1387 50.0716 28.344C49.5489 28.568 49.0263 28.68 48.5036 28.68C48.1489 28.68 47.7943 28.6333 47.4396 28.54C46.1703 28.1853 45.3583 27.1773 45.0036 25.516C44.8729 24.9373 44.8076 24.284 44.8076 23.556C43.4076 25.348 42.2129 26.58 41.2236 27.252C40.2529 27.924 39.3943 27.9987 38.6476 27.476C38.6289 27.476 38.6103 27.4573 38.5916 27.42C37.7143 26.6547 37.5556 25.5347 38.1156 24.06C38.5263 22.996 39.2263 21.96 40.2156 20.952C41.2049 19.9253 42.0729 19.412 42.8196 19.412C43.0063 19.412 43.1649 19.4773 43.2956 19.608C43.4263 19.7387 43.4916 19.8973 43.4916 20.084C43.4916 20.252 43.4263 20.4013 43.2956 20.532C43.1649 20.6627 43.0063 20.728 42.8196 20.728C42.4649 20.728 41.8863 21.1387 41.0836 21.96C40.2809 22.7627 39.7023 23.6213 39.3476 24.536C39.0116 25.4133 39.0396 26.048 39.4316 26.44C40.2343 26.888 42.0729 25.1333 44.9476 21.176C45.3396 17.9467 46.3476 14.4467 47.9716 10.676C49.5956 6.90533 51.1169 4.42267 52.5356 3.228C53.3196 2.57467 54.0289 2.36933 54.6636 2.612C54.9996 2.76133 55.2236 3.02267 55.3356 3.396C55.6716 4.53466 54.9343 6.87733 53.1236 10.424C51.3316 13.9707 49.1663 17.5173 46.6276 21.064C46.4223 21.344 46.2729 21.5493 46.1796 21.68C46.0303 23.0987 46.0583 24.284 46.2636 25.236C46.5249 26.3933 47.0383 27.0747 47.8036 27.28C48.0463 27.3733 48.2983 27.4013 48.5596 27.364C48.8396 27.3453 49.0916 27.308 49.3156 27.252C49.5396 27.196 49.7729 27.1027 50.0156 26.972C50.2583 26.8227 50.4636 26.692 50.6316 26.58C50.8183 26.4493 51.0049 26.3 51.1916 26.132C51.3783 25.9453 51.5276 25.796 51.6396 25.684C51.7516 25.5533 51.8636 25.4133 51.9756 25.264C52.0876 25.1147 52.1623 25.0213 52.1996 24.984C52.2369 24.928 52.2649 24.8907 52.2836 24.872V24.844ZM53.3756 4.236C52.2556 5.16933 51.0236 7.092 49.6796 10.004C48.3356 12.916 47.3369 15.8093 46.6836 18.684C49.0729 15.1933 50.9489 12.0107 52.3116 9.136C53.6743 6.26133 54.2716 4.49733 54.1036 3.844C53.9169 3.844 53.6743 3.97467 53.3756 4.236ZM85.979 19.272C86.2403 19.2907 86.4083 19.412 86.483 19.636C86.5763 19.86 86.5576 20.084 86.427 20.308C86.2963 20.5133 86.1003 20.6067 85.839 20.588C83.9536 20.4387 81.8443 20.5507 79.511 20.924C79.3056 27.084 78.9043 33.3933 78.307 39.852C78.2883 40.132 78.1576 40.3093 77.915 40.384C77.691 40.4773 77.4763 40.4493 77.271 40.3C77.0656 40.1693 76.9816 39.9733 77.019 39.712C77.579 33.4213 77.971 27.2333 78.195 21.148C76.4963 21.484 74.5083 21.9787 72.231 22.632C69.4683 23.416 66.9016 24.312 64.531 25.32C63.2243 29.4267 62.2163 33.328 61.507 37.024C61.4323 37.3973 61.199 37.584 60.807 37.584C60.4336 37.584 60.2283 37.416 60.191 37.08C60.191 37.024 60.2003 36.9587 60.219 36.884C60.891 33.3373 61.787 29.7253 62.907 26.048C60.499 27.1867 58.343 28.428 56.439 29.772C56.215 29.9213 55.991 29.94 55.767 29.828C55.5243 29.716 55.3936 29.5573 55.375 29.352C55.3376 29.1467 55.4123 28.9507 55.599 28.764C57.895 27.14 60.5083 25.6747 63.439 24.368C64.4656 21.2133 65.6136 18.096 66.883 15.016C66.9203 14.904 67.0976 14.456 67.415 13.672C67.751 12.8693 67.9563 12.3653 68.031 12.16C68.1243 11.9547 68.3296 11.488 68.647 10.76C68.9643 10.0133 69.1976 9.5 69.347 9.22C69.4963 8.92133 69.7296 8.44533 70.047 7.792C70.383 7.13867 70.663 6.644 70.887 6.308C71.111 5.972 71.391 5.53333 71.727 4.992C72.0816 4.45067 72.4083 4.012 72.707 3.676C73.0056 3.32133 73.3416 2.948 73.715 2.556C74.0883 2.164 74.4616 1.81867 74.835 1.52C75.4883 0.997333 76.067 0.698666 76.571 0.623999C77.0936 0.549332 77.523 0.679999 77.859 1.016C78.195 1.33333 78.4656 1.75333 78.671 2.276C78.8763 2.78 79.035 3.396 79.147 4.124C79.4083 5.692 79.5763 7.47467 79.651 9.472C79.7443 11.4693 79.7723 13.056 79.735 14.232C79.7163 15.3893 79.6603 17.1813 79.567 19.608C81.919 19.2533 84.0563 19.1413 85.979 19.272ZM71.447 21.512C74.0416 20.7467 76.3096 20.1867 78.251 19.832C78.363 17.6853 78.4096 15.2867 78.391 12.636C78.391 9.98533 78.2696 7.596 78.027 5.468C78.0083 5.412 77.9803 5.216 77.943 4.88C77.9243 4.544 77.8963 4.24533 77.859 3.984C77.8216 3.72267 77.775 3.424 77.719 3.088C77.663 2.752 77.5696 2.472 77.439 2.248C77.327 2.024 77.1963 1.884 77.047 1.828C76.4496 1.548 75.3576 2.472 73.771 4.6C72.7443 5.98133 71.755 7.596 70.803 9.444C69.851 11.292 69.0856 12.916 68.507 14.316C67.947 15.716 67.275 17.4893 66.491 19.636C65.987 20.9987 65.511 22.352 65.063 23.696C67.0416 22.8933 69.1696 22.1653 71.447 21.512ZM99.6196 17.508C99.7316 17.508 99.8342 17.536 99.9276 17.592C100.04 17.6293 100.133 17.6947 100.208 17.788C100.282 17.8813 100.32 17.9933 100.32 18.124C100.338 18.236 100.32 18.348 100.264 18.46C100.226 18.5533 100.152 18.6373 100.04 18.712C99.9462 18.768 99.8436 18.8053 99.7316 18.824C98.5742 18.9173 97.2769 19.58 95.8396 20.812C95.6529 21.6333 95.3169 22.5853 94.8316 23.668C94.3462 24.7507 93.9636 25.5347 93.6836 26.02C93.4222 26.5053 93.2262 26.8507 93.0956 27.056C92.4422 28.12 91.8729 28.8387 91.3876 29.212C90.9209 29.604 90.5009 29.688 90.1276 29.464C89.5676 29.1653 89.3809 28.5587 89.5676 27.644C89.7729 26.6547 90.3516 25.4413 91.3036 24.004C92.2742 22.548 93.3849 21.26 94.6356 20.14C94.6729 19.972 94.7009 19.8133 94.7196 19.664C94.7756 19.1227 94.7289 18.8053 94.5796 18.712C94.2622 18.4693 93.8796 18.404 93.4316 18.516C92.6102 18.7027 91.7049 19.356 90.7156 20.476C89.7262 21.5773 88.9609 22.604 88.4196 23.556C87.9156 24.452 87.1316 27.2613 86.0676 31.984C85.0036 36.7253 84.3596 40.0853 84.1356 42.064C84.1169 42.2133 84.0516 42.344 83.9396 42.456C83.8089 42.568 83.6596 42.624 83.4916 42.624C83.3982 42.624 83.3142 42.6053 83.2396 42.568C83.1649 42.5493 83.0996 42.512 83.0436 42.456C82.9876 42.4187 82.9409 42.3627 82.9036 42.288C82.8662 42.232 82.8476 42.1667 82.8476 42.092C82.7356 41.4013 83.1089 38.732 83.9676 34.084C84.8076 29.436 85.5729 25.6187 86.2636 22.632L87.6076 16.78C87.6636 16.612 87.7662 16.4813 87.9156 16.388C88.0649 16.2947 88.2236 16.2667 88.3916 16.304C88.5782 16.3413 88.7182 16.444 88.8116 16.612C88.9049 16.7613 88.9329 16.92 88.8956 17.088C88.8582 17.1627 88.4569 18.8893 87.6916 22.268C87.9716 21.82 88.2796 21.3813 88.6156 20.952C88.9516 20.5227 89.3622 20.028 89.8476 19.468C90.3516 18.908 90.8929 18.432 91.4716 18.04C92.0502 17.6293 92.6102 17.3587 93.1516 17.228C93.9542 17.0413 94.6822 17.172 95.3356 17.62C95.7462 17.9 95.9796 18.3667 96.0356 19.02C97.3236 18.1053 98.5182 17.6013 99.6196 17.508ZM90.8276 27.98C91.2196 27.5693 91.6862 26.888 92.2276 25.936C92.7876 24.984 93.2822 24.004 93.7116 22.996C93.0769 23.78 92.5076 24.5827 92.0036 25.404C91.3502 26.468 90.9582 27.3267 90.8276 27.98ZM112.034 17.508C112.146 17.508 112.248 17.536 112.342 17.592C112.454 17.6293 112.547 17.6947 112.622 17.788C112.696 17.8813 112.734 17.9933 112.734 18.124C112.752 18.236 112.734 18.348 112.678 18.46C112.64 18.5533 112.566 18.6373 112.454 18.712C112.36 18.768 112.258 18.8053 112.146 18.824C110.988 18.9173 109.691 19.58 108.254 20.812C108.067 21.6333 107.731 22.5853 107.246 23.668C106.76 24.7507 106.378 25.5347 106.098 26.02C105.836 26.5053 105.64 26.8507 105.51 27.056C104.856 28.12 104.287 28.8387 103.802 29.212C103.335 29.604 102.915 29.688 102.542 29.464C101.982 29.1653 101.795 28.5587 101.982 27.644C102.187 26.6547 102.766 25.4413 103.718 24.004C104.688 22.548 105.799 21.26 107.05 20.14C107.087 19.972 107.115 19.8133 107.134 19.664C107.19 19.1227 107.143 18.8053 106.994 18.712C106.676 18.4693 106.294 18.404 105.846 18.516C105.024 18.7027 104.119 19.356 103.13 20.476C102.14 21.5773 101.375 22.604 100.834 23.556C100.33 24.452 99.5456 27.2613 98.4816 31.984C97.4176 36.7253 96.7736 40.0853 96.5496 42.064C96.531 42.2133 96.4656 42.344 96.3536 42.456C96.223 42.568 96.0736 42.624 95.9056 42.624C95.8123 42.624 95.7283 42.6053 95.6536 42.568C95.579 42.5493 95.5136 42.512 95.4576 42.456C95.4016 42.4187 95.355 42.3627 95.3176 42.288C95.2803 42.232 95.2616 42.1667 95.2616 42.092C95.1496 41.4013 95.523 38.732 96.3816 34.084C97.2216 29.436 97.987 25.6187 98.6776 22.632L100.022 16.78C100.078 16.612 100.18 16.4813 100.33 16.388C100.479 16.2947 100.638 16.2667 100.806 16.304C100.992 16.3413 101.132 16.444 101.226 16.612C101.319 16.7613 101.347 16.92 101.31 17.088C101.272 17.1627 100.871 18.8893 100.106 22.268C100.386 21.82 100.694 21.3813 101.03 20.952C101.366 20.5227 101.776 20.028 102.262 19.468C102.766 18.908 103.307 18.432 103.886 18.04C104.464 17.6293 105.024 17.3587 105.566 17.228C106.368 17.0413 107.096 17.172 107.75 17.62C108.16 17.9 108.394 18.3667 108.45 19.02C109.738 18.1053 110.932 17.6013 112.034 17.508ZM103.242 27.98C103.634 27.5693 104.1 26.888 104.642 25.936C105.202 24.984 105.696 24.004 106.126 22.996C105.491 23.78 104.922 24.5827 104.418 25.404C103.764 26.468 103.372 27.3267 103.242 27.98Z" fill="#9F0311"/>
</svg>
